<?xml version="1.0" encoding="UTF-8"?>
<svg id="Layer_1" data-name="Layer 1" xmlns="http://www.w3.org/2000/svg" xmlns:xlink="http://www.w3.org/1999/xlink" viewBox="0 0 2576.25 2996.74">
  <defs>
    <style>
      .cls-1 {
        fill: url(#Super_Soft_Black_Vignette-4);
      }

      .cls-2 {
        fill: url(#Super_Soft_Black_Vignette-5);
      }

      .cls-3 {
        fill: url(#Super_Soft_Black_Vignette-9);
      }

      .cls-4 {
        fill: url(#Super_Soft_Black_Vignette-2);
      }

      .cls-5 {
        fill: url(#Super_Soft_Black_Vignette-3);
      }

      .cls-6 {
        fill: url(#Super_Soft_Black_Vignette-6);
      }

      .cls-7 {
        fill: url(#Super_Soft_Black_Vignette-7);
      }

      .cls-8 {
        fill: url(#Super_Soft_Black_Vignette-8);
      }

      .cls-9 {
        fill: #fff;
      }

      .cls-10 {
        fill: url(#Super_Soft_Black_Vignette-10);
      }

      .cls-11 {
        fill: url(#Super_Soft_Black_Vignette-11);
      }

      .cls-12 {
        fill: url(#Super_Soft_Black_Vignette-12);
      }

      .cls-13 {
        opacity: .7;
      }

      .cls-14 {
        opacity: .6;
      }

      .cls-15 {
        opacity: .55;
      }

      .cls-16 {
        opacity: .25;
      }

      .cls-17 {
        fill: #22a7f0;
      }

      .cls-18 {
        fill: #ffb855;
      }

      .cls-19 {
        fill: url(#Super_Soft_Black_Vignette);
      }
    </style>
    <radialGradient id="Super_Soft_Black_Vignette" data-name="Super Soft Black Vignette" cx="1274.76" cy="1259.5" fx="1274.76" fy="1259.5" r="433.22" gradientUnits="userSpaceOnUse">
      <stop offset=".57" stop-color="#161412"/>
      <stop offset=".8" stop-color="#161412"/>
      <stop offset="1" stop-color="#161412"/>
    </radialGradient>
    <radialGradient id="Super_Soft_Black_Vignette-2" data-name="Super Soft Black Vignette" cx="1041.95" cy="1470.38" fx="1041.95" fy="1470.38" r="792.64" xlink:href="#Super_Soft_Black_Vignette"/>
    <radialGradient id="Super_Soft_Black_Vignette-3" data-name="Super Soft Black Vignette" cx="336.93" cy="1144.78" fx="336.93" fy="1144.78" r="50.43" xlink:href="#Super_Soft_Black_Vignette"/>
    <radialGradient id="Super_Soft_Black_Vignette-4" data-name="Super Soft Black Vignette" cx="215.61" cy="1128.29" fx="215.61" fy="1128.29" r="56.24" xlink:href="#Super_Soft_Black_Vignette"/>
    <radialGradient id="Super_Soft_Black_Vignette-5" data-name="Super Soft Black Vignette" cx="1950.12" cy="626.91" fx="1950.12" fy="626.91" r="196.67" xlink:href="#Super_Soft_Black_Vignette"/>
    <radialGradient id="Super_Soft_Black_Vignette-6" data-name="Super Soft Black Vignette" cx="1260.72" cy="731.28" fx="1260.72" fy="731.28" r="584.79" xlink:href="#Super_Soft_Black_Vignette"/>
    <radialGradient id="Super_Soft_Black_Vignette-7" data-name="Super Soft Black Vignette" cx="1281.26" cy="809.04" fx="1281.26" fy="809.04" r="541.16" xlink:href="#Super_Soft_Black_Vignette"/>
    <radialGradient id="Super_Soft_Black_Vignette-8" data-name="Super Soft Black Vignette" cx="1259.8" cy="675.11" fx="1259.8" fy="675.11" r="675.11" xlink:href="#Super_Soft_Black_Vignette"/>
    <radialGradient id="Super_Soft_Black_Vignette-9" data-name="Super Soft Black Vignette" cx="1257.41" cy="473.49" fx="1257.41" fy="473.49" r="507.92" xlink:href="#Super_Soft_Black_Vignette"/>
    <radialGradient id="Super_Soft_Black_Vignette-10" data-name="Super Soft Black Vignette" cx="1246.66" cy="324.26" fx="1246.66" fy="324.26" r="475.41" xlink:href="#Super_Soft_Black_Vignette"/>
    <radialGradient id="Super_Soft_Black_Vignette-11" data-name="Super Soft Black Vignette" cx="1276.86" cy="949.78" fx="1276.86" fy="949.78" r="512.5" xlink:href="#Super_Soft_Black_Vignette"/>
    <radialGradient id="Super_Soft_Black_Vignette-12" data-name="Super Soft Black Vignette" cx="592.97" cy="789.32" fx="592.97" fy="789.32" r="198.07" xlink:href="#Super_Soft_Black_Vignette"/>
  </defs>
  <path class="cls-9" d="M708.42,1419.43l-5.2-217.67c-1.34-56.13,43.86-102.32,100-102.19l943.55,2.12c55.03.12,99.58,44.77,99.58,99.81v217.94"/>
  <path class="cls-19" d="M708.41,1434.88c-8.36,0-15.23-6.67-15.44-15.08l-5.2-217.67c-.75-31.35,10.92-60.95,32.85-83.36,21.87-22.35,51.11-34.64,82.36-34.64h.27l943.55,2.12c63.41.14,115,51.84,115,115.25v217.94c0,8.53-6.92,15.45-15.45,15.45s-15.45-6.92-15.45-15.45v-217.94c0-46.41-37.75-84.26-84.17-84.36l-943.55-2.12c-22.93-.19-44.43,8.95-60.48,25.36-16.05,16.4-24.59,38.07-24.04,61.02l5.21,217.67c.2,8.53-6.55,15.61-15.07,15.81-.13,0-.25,0-.38,0Z"/>
  <path class="cls-9" d="M2019.69,1974.67H726.27l19.46-259.05.05-.05,2.11-28.37s-68.64,75.49-242.21,22.3c-173.57-53.19-286.85-352.71-286.85-352.71-111.99-61.79-150.61-177.64-154.47-260.02-1.65-35.06,9.42-63.64,29.25-85.01,26.67-28.78,69.1-44.54,117.5-45.67,84.29-1.91,147.42,133.26,147.42,133.26,0,0,20.6-8.34,49.53-78.52,28.94-70.18,96.54-30.22,94.64,4.63-1.96,34.86-30.89,80.99-37.38,118.94-6.38,37.95-13.49,93.97-13.49,93.97,60.5,66.94,127.85,148.45,127.85,148.45,142.47-185.36,320.11-228.26,320.11-228.26l123.58-41.19s287.57-89.28,569.02,3.19c36.35,11.95,72.6,26.88,108.08,45.47,310.43,162.5,319.24,808.65,319.24,808.65Z"/>
  <path class="cls-4" d="M2019.69,1990.11H726.29c-4.3,0-8.4-1.79-11.32-4.94-2.92-3.15-4.4-7.38-4.08-11.66l19.13-254.54c-36.7,20.05-109.59,41.85-228.87,5.29-167.91-51.47-278.03-314.59-294.71-356.73-138.02-79.35-155.46-226.44-157.5-270.05-1.77-37.69,9.86-71.08,33.63-96.56,29.08-31.18,74.61-49.03,128.2-50.26.71-.02,1.43-.02,2.14-.02,72.5,0,127.98,84.3,149.71,123.16,7.49-9.97,18.34-27.8,31.18-58.88,15.05-36.46,42.91-53.95,74.52-46.76,28.87,6.56,51.21,32.64,49.79,58.13-1.19,21.35-10.76,45.1-20.02,68.06-7.29,18.07-14.81,36.75-17.5,52.61-4.98,29.37-10.41,70.15-12.52,86.32,43.47,48.35,89.83,103.31,111.32,129.01,141.78-174.84,309.52-217.01,316.78-218.76,8.31-2,16.64,3.1,18.64,11.39,2,8.29-3.09,16.63-11.37,18.64h0c-1.72.42-174.34,44.21-311.49,222.67-2.86,3.73-7.27,5.95-11.97,6.03-4.59.14-9.18-1.98-12.18-5.61-.67-.81-67.85-82.04-127.42-147.94-3.02-3.34-4.43-7.83-3.87-12.29.07-.56,7.2-56.76,13.61-94.61,3.25-19.16,11.41-39.41,19.31-59.01,8.32-20.63,16.92-41.98,17.82-58.22.52-9.33-10.63-22.86-25.79-26.3-20.69-4.7-32.7,12.86-39.12,28.43-29.16,70.65-51.79,84.4-58.03,86.94-7.6,3.09-16.32-.32-19.8-7.77-16.28-34.79-71.45-124.34-131.66-124.34-.46,0-.92,0-1.39.01-45.2,1.04-82.95,15.4-106.31,40.44-18.21,19.53-26.75,44.45-25.36,74.05,1.88,40.07,17.99,176.32,146.5,247.22,3.21,1.77,5.69,4.63,6.99,8.06,1.11,2.92,112.64,293.05,276.91,343.41,160.65,49.25,223.75-15.26,226.35-18.03,4.49-4.77,11.54-6.24,17.52-3.6,5.99,2.64,9.71,8.72,9.22,15.24l-20.36,270.88h1260.81c-3.99-99-38.22-637.03-310.47-779.53-300.98-157.54-661.72-48.7-665.34-47.58-8.15,2.52-16.8-2.03-19.33-10.18-2.52-8.15,2.03-16.8,10.17-19.33,3.81-1.19,94.93-29.11,225.73-37.28,121-7.55,299.55,1.4,463.09,86.99,132.96,69.59,228.5,229.59,283.96,475.55,40.89,181.33,43.56,344.95,43.58,346.58.06,4.13-1.54,8.12-4.45,11.06-2.9,2.94-6.87,4.6-11,4.6ZM351.59,1085.54h0s0,0,0,0Z"/>
  <path d="M325.67,1558.89c-6.27,0-12.17-3.85-14.48-10.08-2.97-8,1.11-16.89,9.11-19.86,160.18-59.46,201.38-181.67,201.78-182.9,2.62-8.1,11.33-12.57,19.42-9.97,8.11,2.6,12.59,11.25,10.01,19.37-1.78,5.58-45.49,137.51-220.45,202.46-1.77.66-3.59.97-5.38.97Z"/>
  <path class="cls-5" d="M365.84,1112.93c-29.63,15.16-47.11,48.5-60.32,78.27,0,0-5.6,14.55-5.6,14.55,3.35-31.97,10.48-63.95,27.13-92.05,6.6-10.44,13.64-20.56,24.1-27.95,18.15-9.23,32.37,17.03,14.69,27.18h0Z"/>
  <polygon points="464.57 1247.08 418.36 1287.27 439.08 1229.64 464.57 1247.08 464.57 1247.08"/>
  <path class="cls-1" d="M276.76,1077.45c-42.66,34.12-86.66,59.52-122.29,101.7,1.44-58.8,67.13-102.82,122.29-101.7h0Z"/>
  <path d="M592.29,1377.89l71.93,128.22-97.13-110.35c-14.2-17.7,13.19-37.14,25.21-17.86h0Z"/>
  <g>
    <path class="cls-9" d="M755.99,1658.94c-1.38,21.36-.65,44.75,1.17,69.19,1.27,17.1,15.47,30.39,32.62,30.55l987.78,8.48c17.15.16,31.06-13.64,31.32-30.78.4-26.94-1.07-53.02-5.06-77.93-2.4-15-15.32-26.05-30.51-26.12l-984.21-4.03c-17.38-.08-31.97,13.31-33.09,30.65Z"/>
    <g class="cls-16">
      <path d="M1808.88,1736.38c-.27,17.15-14.16,30.93-31.31,30.77l-987.8-8.47c-17.15-.16-31.31-13.46-32.61-30.55-1.79-24.42-2.55-47.81-1.14-69.19.05-.65.11-1.3.22-1.9.27,4.78.54,9.66.92,14.54,1.3,17.09,15.47,30.39,32.61,30.55l987.8,8.47c14.06.11,25.89-9.06,29.85-21.82,1.25,15.52,1.68,31.37,1.47,47.59Z"/>
    </g>
    <path d="M1777.85,1786.15c-.16,0-.32,0-.48,0l-987.76-8.47c-26.84-.26-49.41-21.4-51.39-48.14-2.1-28.15-2.49-51.65-1.18-71.82h0c1.75-27.2,24.52-48.42,51.89-48.42h.24l984.2,4.03c24.61.11,45.3,17.82,49.19,42.11,4,24.98,5.73,51.54,5.29,81.21-.41,27.39-22.79,49.5-50.01,49.5ZM788.94,1647.28c-7.39,0-13.53,5.64-13.99,12.88h0c-1.19,18.4-.82,40.17,1.15,66.56.54,7.21,6.62,12.9,13.85,12.97l987.76,8.47c6.62.19,12.06-5.35,12.17-12.07.4-27.45-1.18-51.87-4.82-74.65-.94-5.84-5.92-10.1-11.85-10.13l-984.2-4.03h-.07ZM755.99,1658.94h.05-.05Z"/>
    <path class="cls-9" d="M1598.08,1600.77v207.19c0,54.54-44.23,98.77-98.77,98.77h-345.14c-30.61,0-57.96-13.95-76.03-35.76-14.22-17.09-22.74-39.07-22.74-63v-204.7c0-51.01,38.86-93.39,89.65-98.33,117.44-11.5,242.58-12.37,361.8-2.66,26.81,2.17,50.41,14.76,66.91,33.65v.05c15.19,17.42,24.31,40.05,24.31,64.8Z"/>
    <ellipse class="cls-17" cx="1478.69" cy="1668.37" rx="63.76" ry="68.78"/>
    <path d="M1499.32,1925.72h-345.15c-64.93,0-117.76-52.83-117.76-117.76v-204.68c0-60.9,45.9-111.31,106.77-117.26,118.4-11.57,244.7-12.51,365.23-2.7,60.94,4.96,108.67,56.54,108.67,117.42v207.21c0,64.93-52.83,117.76-117.76,117.76ZM1340.62,1514.59c-65.44,0-130.73,3.09-193.75,9.25-41.32,4.04-72.48,38.2-72.48,79.45v204.68c0,43.99,35.79,79.77,79.77,79.77h345.15c43.98,0,79.77-35.78,79.77-79.77v-207.21c0-41.93-31.71-76.14-73.76-79.56-54.15-4.41-109.48-6.6-164.71-6.6Z"/>
    <path d="M1364.73,1925.72c-10.49,0-18.99-8.5-18.99-18.99v-137.79l-110.62-58.42c-6.23-3.29-10.13-9.75-10.13-16.79v-188.58c0-10.49,8.51-18.99,18.99-18.99s18.99,8.5,18.99,18.99v177.13l110.62,58.42c6.23,3.29,10.13,9.75,10.13,16.79v149.24c0,10.49-8.51,18.99-18.99,18.99Z"/>
    <path d="M1478.69,1752.14c-43.43,0-78.76-37.58-78.76-83.78s35.33-83.77,78.76-83.77,78.76,37.58,78.76,83.77-35.33,83.78-78.76,83.78ZM1478.69,1614.59c-26.88,0-48.76,24.12-48.76,53.77s21.88,53.78,48.76,53.78,48.76-24.12,48.76-53.78-21.88-53.77-48.76-53.77Z"/>
    <g class="cls-16">
      <path d="M1598.08,1600.77v207.19c0,54.54-44.23,98.77-98.77,98.77h-345.14c-30.61,0-57.96-13.95-76.03-35.76,254.84-24.2,423.4-132.58,495.63-334.99,15.19,17.42,24.31,40.05,24.31,64.8Z"/>
    </g>
  </g>
  <path d="M773.65,1627.77c11.09-99.14,36.52-196.91,82.37-285.57-18.09,45.73-30.73,93.29-38.82,141.67-8.05,47.59-12.78,97.01-12.68,144.93,0,0-30.88-1.03-30.88-1.03h0Z"/>
  <path d="M1778.21,1640.8c-.57-50.36-4.87-101.82-12.73-151.82-8.31-50.39-20.12-100.57-42.71-146.78,13.63,21.85,24.59,45.39,34.11,69.49,27.58,73.21,43.09,149.89,52.2,227.63,0,0-30.86,1.48-30.86,1.48h0Z"/>
  <g class="cls-16">
    <path d="M812.31,1470.37l-23.22,132.69s-35.17,31.92-32.18,65.29c.93,10.61-3.35,28.11-11.12,47.22l2.11-28.37s-68.64,75.49-242.21,22.3c-173.57-53.19-286.85-352.71-286.85-352.71-111.99-61.79-150.61-177.64-154.47-260.02-1.65-35.06,9.42-63.64,29.25-85.01,10.5,46.03,45.26,219.66,153.54,270.5,45.81,21.51,83.64,57,110.84,99.67,55.18,86.56,147.53,210.43,235.07,231.02,136.81,32.18,219.24-142.58,219.24-142.58Z"/>
  </g>
  <g class="cls-16">
    <path d="M1740.31,1307.87c-233.04,198.24-698.36-9.94-698.36-9.94l550.43-177.38c36.35,11.95,72.6,26.88,108.08,45.47,310.43,162.5,319.24,808.65,319.24,808.65h-348.64c10.25-9.63,20.9-19.05,31.98-28.32,344.98-288.34,37.28-638.48,37.28-638.48Z"/>
  </g>
  <g>
    <path class="cls-9" d="M2029.19,769.96c-10.51,33.24-35.32,60.03-67.54,73.22l-56.81,23.18-16.16-153.12-34.44-325.78,90.01,37.47c23.73,9.91,43.65,27.22,56.43,49.48,12.55,21.88,22.82,46.85,30.36,73.67,19.35,68.59,20.95,149.32-1.83,221.88Z"/>
    <path class="cls-2" d="M1904.85,881.8c-6.09,0-11.86-3.63-14.31-9.61-3.22-7.9.57-16.92,8.47-20.14l56.79-23.18c28.18-11.5,49.55-34.65,58.62-63.52,28.68-91.21,17.76-205.03-27.17-283.23-10.96-19.07-28.34-34.31-48.96-42.9l-89.98-37.48c-7.87-3.28-11.6-12.33-8.32-20.2,3.28-7.88,12.33-11.6,20.2-8.32l89.98,37.49c26.86,11.19,49.54,31.09,63.86,56.03,49.74,86.55,61.46,207.4,29.86,307.89-11.85,37.67-39.7,67.88-76.43,82.86l-56.79,23.18c-1.91.78-3.89,1.15-5.83,1.15Z"/>
    <path class="cls-9" d="M700.77,1025.44l-9.02-.77-52.07-4.48c-34.75-2.91-66.42-21.14-86.29-49.74-20.62-29.66-36.53-62.7-47.72-96.86-21.68-65.93-25.98-136-13.13-193.75,5.58-25.08,19.39-47.53,39.09-64.04l74.74-62.56,94.4,472.19Z"/>
    <g>
      <circle class="cls-9" cx="1259.81" cy="675.11" r="659.66"/>
      <g class="cls-16">
        <path d="M1919.14,695.68c-11.37,364.17-315.81,650.12-679.93,638.74-96.18-3-186.87-26.41-268.07-66.04,17.96,2.14,36.13,3.44,54.51,4.01,364.11,11.37,668.55-274.63,679.93-638.74,8.37-267.99-144.29-503.62-370.67-613.89,337.72,38.29,595.03,330.18,584.24,675.92Z"/>
      </g>
      <path class="cls-6" d="M1919.97,669.12c-55.42,661.42-1014.09,745.35-1286.22,214.39-16.56-45.39-27.02-102.35-32.44-168.88C684.2,154.23,1631.6,43.96,1913.5,586.23c5.15,29.87,7.21,57.42,6.47,82.88Z"/>
      <g class="cls-13">
        <path class="cls-7" d="M1919.97,669.12c-54.86,654.56-994.37,743.53-1277.56,230.6,112.63,104.35,262.03,170.08,427.53,175.25,364.11,11.37,668.55-274.57,679.93-638.74.51-16.31.41-32.53-.3-48.57,65.93,52.32,122.21,118.3,163.95,198.58,5.14,29.84,7.19,57.41,6.46,82.88Z"/>
      </g>
      <path class="cls-8" d="M1260.34,1350.22c-7.2,0-14.38-.11-21.61-.34-180.24-5.63-347.5-81.11-470.97-212.54-123.47-131.43-188.36-303.07-182.73-483.31,5.63-180.24,81.11-347.5,212.54-470.97C929,59.6,1100.75-5.3,1280.88.34c372.07,11.62,665.32,323.77,653.7,695.85-5.63,180.24-81.11,347.5-212.54,470.96-126.16,118.52-289.4,183.07-461.7,183.07ZM1259.29,30.9c-164.42,0-320.18,61.59-440.57,174.69-125.41,117.82-197.44,277.42-202.81,449.41-5.37,171.99,56.56,335.78,174.38,461.19,117.82,125.42,277.42,197.44,449.41,202.81,171.94,5.38,335.78-56.56,461.19-174.38,125.42-117.82,197.44-277.42,202.81-449.41,5.37-171.99-56.56-335.78-174.38-461.19-117.82-125.41-277.42-197.44-449.41-202.81-6.88-.21-13.76-.32-20.62-.32Z"/>
      <path class="cls-3" d="M601.34,729.63c-.73,0-1.47-.05-2.21-.16-8.2-1.21-13.86-8.84-12.65-17.03,18.86-127.49,83.34-240.48,186.48-326.74,94.75-79.24,217.62-133.34,355.32-156.46,282.28-47.37,638.64,42.5,798.53,350.08,3.82,7.35.96,16.41-6.39,20.23-7.36,3.82-16.41.96-20.23-6.39-152.94-294.2-495.38-379.9-766.94-334.33-222.76,37.39-475.58,177.33-517.09,457.99-1.1,7.45-7.5,12.81-14.82,12.81Z"/>
      <path class="cls-10" d="M622.35,522.87c-2.57,0-5.18-.55-7.66-1.72-9-4.24-12.87-14.97-8.64-23.98,46.28-98.39,123.65-184.31,223.75-248.47,95.94-61.51,210.38-101.84,330.94-116.63,280.94-34.47,551.67,71.29,724.19,282.94,6.29,7.71,5.13,19.07-2.58,25.36-7.72,6.28-19.06,5.13-25.36-2.58-164.65-201.99-423.31-302.91-691.86-269.94-238.5,29.27-440.22,161.34-526.46,344.68-3.07,6.53-9.56,10.35-16.32,10.35Z"/>
      <path class="cls-11" d="M1252.21,1247.94c-101.37,0-202.21-18.63-294.17-55.16-152.32-60.51-269.84-164.69-339.85-301.29-4.41-8.6-1.01-19.15,7.59-23.55,8.62-4.4,19.15-1.01,23.56,7.59,150.82,294.28,496.71,373.58,754.2,322.71,223.44-44.13,471.86-206.69,499-530.58.8-9.63,9.24-16.79,18.9-15.98,9.63.81,16.79,9.27,15.98,18.9-12.56,149.89-72.63,281.85-173.72,381.61-91.65,90.45-213.84,152.82-353.37,180.38-52.04,10.28-105.15,15.37-158.11,15.37Z"/>
      <g class="cls-15">
        <path class="cls-9" d="M1216.07,349.21c-259.96,112.07-406.64,300.09-421.36,576.57-.5,9.38-13.29,11.72-17.22,3.19-113.26-246.24-67.3-509.41,433.49-596.94,10.57-1.85,14.93,12.93,5.08,17.18Z"/>
      </g>
      <g class="cls-15">
        <ellipse class="cls-9" cx="1682.69" cy="643.5" rx="65.73" ry="60.67" transform="translate(986.99 2305.28) rotate(-88.21)"/>
      </g>
      <g class="cls-15">
        <path class="cls-9" d="M1631.38,805.38c-16.57,51.18-41.69,100.98-71.89,149.95-15.16,24.58-5.63,57.98,21.01,69.13,15.47,6.48,32.98,6.54,52.32.92,64.7-31.75,112.46-85.19,107.07-200.34-.71-15.14-8.61-29.15-21.09-37.76-8.95-6.18-18.3-10.71-28.04-13.58-25.01-7.38-51.34,6.87-59.37,31.68Z"/>
      </g>
    </g>
    <path class="cls-12" d="M700.8,1040.86c-.44,0-.88-.02-1.33-.06l-61.11-5.2c-39.51-3.36-75.1-23.89-97.65-56.32-60.1-86.5-84.94-205.36-63.26-302.79,6.25-28.08,21.97-53.83,44.27-72.51l74.72-62.6c6.55-5.48,16.28-4.62,21.76,1.92,5.48,6.54,4.62,16.28-1.92,21.76l-74.72,62.6c-17.11,14.34-29.17,34.07-33.96,55.54-19.58,88.03,3.91,199.93,58.47,278.45,17.28,24.85,44.57,40.59,74.89,43.16l61.11,5.2c8.5.72,14.8,8.2,14.08,16.7-.68,8.06-7.44,14.14-15.37,14.14Z"/>
    <g class="cls-16">
      <path d="M2029.19,769.96c-10.51,33.24-35.32,60.03-67.54,73.22l-56.81,23.18,9.99-167.55c111.29-52.98,109.26-150.21,109.26-150.21l6.94-.51c19.35,68.59,20.95,149.32-1.83,221.88Z"/>
    </g>
    <g class="cls-16">
      <path d="M691.74,1024.67l-52.07-4.48c-34.75-2.91-66.42-21.14-86.29-49.74-20.62-29.66-36.53-62.7-47.72-96.86,0,0,65.64,16.8,111.84-47.44l74.23,198.51Z"/>
    </g>
  </g>
  <g>
    <polyline class="cls-18" points="351.42 1976.47 64.2 2275.88 2500.27 2275.88 2253.15 1976.47"/>
    <g class="cls-16">
      <polyline points="2255.26 2004.27 2255.26 2275.88 2490.83 2275.88"/>
    </g>
    <g class="cls-16">
      <path d="M351.42,2006.42c0,5.15-211.11,269.46-211.11,269.46h211.11"/>
    </g>
    <path d="M2500.27,2291.33H64.2c-6.19,0-11.78-3.69-14.21-9.39-2.43-5.69-1.22-12.29,3.06-16.75l287.22-299.41c5.91-6.16,15.69-6.35,21.84-.45,6.16,5.91,6.36,15.68.45,21.84l-262.15,273.27h2367.07l-226.25-274.14c-5.43-6.58-4.5-16.31,2.08-21.75,6.58-5.43,16.31-4.5,21.75,2.08l247.12,299.41c3.81,4.61,4.61,11.01,2.06,16.42-2.55,5.41-7.99,8.86-13.97,8.86Z"/>
    <rect class="cls-18" x="351.42" y="1976.47" width="1901.73" height="1004.83"/>
    <g class="cls-16">
      <polyline points="1659.26 1990.11 1659.26 2981.3 2235.95 2981.3 2235.95 1970.39"/>
    </g>
    <g class="cls-16">
      <path d="M1326.75,1990.97c-9.46,634.84-387.44,908.67-961.6,990.32h1220.31v-998.91"/>
    </g>
    <polygon class="cls-18" points="1594.03 1976.47 351.42 1976.47 124.86 1640.03 1367.47 1640.03 1594.03 1976.47"/>
    <g class="cls-14">
      <path class="cls-9" d="M395.39,1976.47l3.66,5.92v992.57s-.57,2.27-1.6,6.33h-46.03v-1004.83l-226.56-336.44h1233.19l-1145.65,39.85,183,296.58Z"/>
    </g>
    <g class="cls-16">
      <path d="M1338.11,1668.37s-204.05,259.27-856.25,308.1h1108.1l-231.91-336.44"/>
    </g>
    <path d="M1594.04,1991.9H351.42c-5.14,0-9.94-2.56-12.81-6.82l-226.57-336.4c-3.19-4.73-3.51-10.84-.83-15.88,2.69-5.04,7.93-8.19,13.64-8.19h1242.63c5.14,0,9.94,2.56,12.81,6.82l226.56,336.4c3.19,4.73,3.51,10.84.83,15.88-2.69,5.04-7.93,8.19-13.64,8.19ZM359.64,1961.01h1205.38l-205.76-305.51H153.88l205.76,305.51Z"/>
    <polygon class="cls-18" points="2479.66 1640.03 2468.22 1657.03 2257.22 1970.39 2253.15 1976.47 1594.03 1976.47 1820.58 1640.03 2479.66 1640.03"/>
    <g class="cls-16">
      <polygon points="2468.22 1657.03 2257.22 1970.39 1647.27 1970.39 1846.33 1697.7 2468.22 1657.03"/>
    </g>
    <path d="M2253.13,1991.9h-659.08c-5.71,0-10.95-3.15-13.64-8.19-2.68-5.04-2.36-11.15.83-15.88l226.55-336.4c2.87-4.26,7.68-6.82,12.81-6.82h659.08c5.71,0,10.95,3.15,13.64,8.19,2.68,5.04,2.36,11.15-.83,15.88l-226.55,336.4c-2.87,4.26-7.67,6.82-12.81,6.82ZM1623.07,1961.01h621.83l205.74-305.51h-621.83l-205.74,305.51Z"/>
    <path d="M2253.15,2996.74H351.42c-8.53,0-15.45-6.92-15.45-15.45v-1004.83c0-8.53,6.92-15.45,15.45-15.45h1901.73c8.53,0,15.45,6.92,15.45,15.45v1004.83c0,8.53-6.92,15.45-15.45,15.45ZM366.87,2965.85h1870.83v-973.93H366.87v973.93Z"/>
    <path d="M1594.04,2996.74c-8.53,0-15.45-6.92-15.45-15.45v-1004.84c0-8.53,6.92-15.45,15.45-15.45s15.45,6.92,15.45,15.45v1004.84c0,8.53-6.92,15.45-15.45,15.45Z"/>
  </g>
  <path d="M352.04,2996.73l-352.04-1.27,350.8-29.59c21.26-1.02,22.59,30.15,1.24,30.87h0Z"/>
  <path d="M2253.83,2965.86l322.42,29.59-323.78,1.27c-21.36-.7-20.05-32.01,1.35-30.86h0Z"/>
  <g>
    <path d="M687.21,2906.61c.02.56-.19.69-.68.65-.36-.03-.72,0-1.08,0-18.52,0-37.04,0-55.55.02-.92,0-1.31-.17-1.18-1.18.15-1.18-.48-2.71.25-3.48.66-.7,2.13-.63,3.25-.89,3.81-.88,7.63-1.71,11.43-2.63,5.77-1.4,10.02-6.81,10.06-13.04.07-11.92.08-23.85,0-35.77-.03-4.16-2.1-7.19-5.85-8.92-8.05-3.72-13.12-9.92-15.17-18.65-.92-3.93-.47-7.9-.21-11.86.54-8.32,1.08-16.65,1.63-24.97.4-6.07.81-12.14,1.21-18.21.04-.56.08-.9.83-.89,12.94.03,25.89.02,38.83.02.06,0,.13.03.43.1-6.65,5.19-13.16,10.27-19.79,15.44,1.48,1.32,2.92,2.59,4.36,3.86,1.79,1.58,3.57,3.17,5.38,4.72.46.39.52.63.08,1.09-7.36,7.83-14.72,15.67-22.07,23.5-.73.78-1.45,1.56-2.03,2.5,1.22-.92,2.44-1.83,3.65-2.76,10.23-7.84,20.45-15.7,30.69-23.53.74-.56.89-.82.14-1.55-2.72-2.65-5.34-5.4-8.03-8.09-.47-.47-.55-.77-.09-1.33,3.63-4.47,7.23-8.97,10.81-13.48.56-.7,1.23-.52,1.85-.43.62.08.32.72.34,1.1.64,9.3,1.27,18.61,1.88,27.91.46,7.05,1.23,14.11,1.24,21.16.01,11.32-5.46,19.4-15.49,24.27-3.93,1.91-5.99,4.94-6,9.37,0,11.59,0,23.19,0,34.78,0,7.11,4.19,12.35,11.02,13.89,4.37.98,8.73,2.03,13.1,3,.55.12.79.28.77.89-.05,1.13-.04,2.26,0,3.39Z"/>
    <g>
      <path d="M514.12,2838.37c-5.31-4.59-11.49-6.43-18.24-6.45-6.74-.02-12.94,1.81-18.29,6.36-.45-2.59-.62-5.05-.54-7.52.48-14.61,6.63-26.25,17.95-35.19.66-.52,1.06-.49,1.71.01,9.82,7.67,15.81,17.63,17.57,30.11.59,4.18.51,8.38-.17,12.67Z"/>
      <path d="M474.21,2835.98c-8.31-4-16.73-4.55-25.34-1.35,1.84-18.83,18.33-37,41.73-39.41-11.93,11-17.5,24.47-16.39,40.75Z"/>
      <path d="M542.67,2834.07c-8.76-2.63-17.17-1.82-25.25,2.73,1.39-16.61-4.14-30.31-16.16-41.45,20.32,1.57,39.19,18.2,41.42,38.72Z"/>
      <path d="M507.42,2907.26c-6.32-.12-11.73-5.03-12.76-11.57-.19-1.21-.25-2.43-.25-3.65v-28.04c0-9.99.01-19.98-.02-29.97,0-.77.16-1.03.97-1.01,2.03.06,2.03.02,2.03,2.06-.01,18.93-.03,37.86-.04,56.79,0,2.08.21,4.14,1.04,6.07,1.76,4.07,6.4,6.82,10.47,6.2,5.25-.8,8.67-4.15,9.33-9.18.11-.88.14-1.76.21-2.64.07-.95.67-1.57,1.51-1.56.84.01,1.43.65,1.48,1.59.46,8.31-5.86,15.05-13.97,14.9Z"/>
      <path d="M497.22,2792.88c-.66.44-1.61.11-2.44.14-.39.02-.38-.29-.38-.56-.01-1.86-.05-3.72-.02-5.58.01-.89.65-1.5,1.44-1.52.81-.02,1.46.62,1.56,1.53,0,.07,0,.13,0,.2v2.64c0,.41.02.81,0,1.22-.05.66.32,1.61-.16,1.93Z"/>
      <path d="M498.13,2771.14c-.52-1.51-1.34-2.87-2.21-4.34-.93,1.47-1.7,2.85-2.24,4.35-.45,1.23-.14,2.29.78,2.99.85.64,2.04.63,2.89,0,.93-.69,1.2-1.73.77-2.99ZM495.67,2772.99c-.39.28-.83.29-1.22.02-.47-.33-.6-.82-.38-1.34.25-.62.58-1.21.98-2.03.4.81.73,1.39.98,2,.21.51.13,1.01-.35,1.35Z"/>
      <path d="M465.89,2784.14c-.55-1.53-1.34-2.94-2.27-4.42-.9,1.5-1.72,2.9-2.26,4.44-.4,1.16-.07,2.23.83,2.9.89.65,2.01.65,2.89-.02.9-.68,1.22-1.74.8-2.9ZM463.37,2785.91c-.38.29-.81.29-1.2.01-.43-.3-.6-.74-.43-1.24.24-.7.57-1.35,1.03-1.98.43.64.77,1.28,1.02,1.97.19.53-.01.93-.42,1.24Z"/>
      <path d="M508.78,2784.25c-.52-1.58-1.36-2.99-2.28-4.55-.92,1.55-1.77,2.97-2.29,4.55-.37,1.12-.03,2.14.85,2.8.87.66,2.01.65,2.89,0,.88-.65,1.2-1.68.83-2.8ZM506.27,2785.89c-.42.32-.87.32-1.28-.01-.39-.32-.58-.74-.35-1.25.29-.64.6-1.27.95-2.01.51.73.82,1.36,1.07,2.02.18.5.03.94-.38,1.25Z"/>
      <path d="M530.24,2784.29c-.53-1.61-1.37-3.06-2.31-4.57-.91,1.52-1.77,2.97-2.29,4.59-.35,1.1.01,2.15.9,2.78.85.61,1.96.6,2.82-.02.88-.64,1.25-1.69.89-2.79ZM527.68,2785.9c-.39.29-.81.3-1.21.02-.44-.31-.57-.75-.42-1.25.22-.71.6-1.33,1.07-2.07.36.77.68,1.4.95,2.05.21.5.05.94-.37,1.25Z"/>
      <path d="M487.29,2784.05c-.54-1.5-1.34-2.87-2.22-4.35-.89,1.5-1.69,2.87-2.23,4.36-.44,1.19-.12,2.33.79,3,.87.65,2.03.64,2.9-.01.93-.7,1.21-1.76.77-3ZM484.83,2785.89c-.43.32-.89.31-1.3-.02-.45-.36-.52-.87-.3-1.38.25-.59.56-1.15.96-1.95.4.79.73,1.37.98,1.98.21.5.14,1.01-.34,1.36Z"/>
      <path d="M519.63,2771.32c-.53-1.57-1.36-2.99-2.28-4.53-.93,1.56-1.77,2.99-2.3,4.57-.37,1.11,0,2.16.87,2.8.86.63,2.06.61,2.9-.03.87-.67,1.18-1.69.81-2.8ZM517.1,2772.99c-.39.29-.83.29-1.22.01-.41-.3-.63-.73-.41-1.24.28-.65.6-1.28.97-2.05.5.73.82,1.36,1.06,2.02.19.52.02.95-.4,1.25Z"/>
      <path d="M476.83,2771.57c-.49-1.7-1.41-3.2-2.36-4.79-.92,1.66-1.92,3.14-2.36,4.91-.25,1,.21,2,1.05,2.55.81.53,1.94.49,2.74-.09.84-.61,1.21-1.59.93-2.58ZM474.21,2773c-.39.28-.83.28-1.22-.01-.45-.34-.61-.81-.36-1.35.28-.61.59-1.2.99-2.02.39.83.68,1.44.97,2.05.26.55.07,1-.38,1.33Z"/>
    </g>
    <path d="M717.39,2930.68h-118.97c-3.51,0-6.37-2.9-6.37-6.45v-174.41c0-3.56,2.86-6.45,6.37-6.45h118.97c3.51,0,6.37,2.9,6.37,6.45v174.41c0,3.56-2.86,6.45-6.37,6.45ZM598.42,2747.67c-1.17,0-2.12.96-2.12,2.15v174.41c0,1.19.95,2.15,2.12,2.15h118.97c1.17,0,2.12-.96,2.12-2.15v-174.41c0-1.19-.95-2.15-2.12-2.15h-118.97Z"/>
    <path d="M555.26,2930.68h-118.97c-3.51,0-6.37-2.9-6.37-6.45v-174.41c0-3.56,2.86-6.45,6.37-6.45h118.97c3.51,0,6.37,2.9,6.37,6.45v174.41c0,3.56-2.86,6.45-6.37,6.45ZM436.29,2747.67c-1.17,0-2.12.96-2.12,2.15v174.41c0,1.19.95,2.15,2.12,2.15h118.97c1.17,0,2.12-.96,2.12-2.15v-174.41c0-1.19-.95-2.15-2.12-2.15h-118.97Z"/>
  </g>
</svg>